<?xml version="1.0" standalone="no"?><!DOCTYPE svg PUBLIC "-//W3C//DTD SVG 1.1//EN" "http://www.w3.org/Graphics/SVG/1.1/DTD/svg11.dtd"><svg xmlns="http://www.w3.org/2000/svg" version="1.1" width="838.833" height="747.166" xmlns:xlink="http://www.w3.org/1999/xlink" xlink="http://www.w3.org/1999/xlink" style="position:relative;" viewBox="29.167 4.167 838.833 747.166"><defs/><g><g width="116.667" height="352.771" transform="scale(1,1) translate(433.333,98.615)"><g stroke="#000000" opacity="1" stroke-width="1" stroke-dasharray="none" width="116.667" height="352.771" transform="scale(1,1) translate(0,0)" fill="#FFFFFF" fill-opacity="1" stroke-opacity="1"><rect width="116.667" height="352.771"/></g><g width="115.66666618982953" height="351.7708341738519" transform="scale(1,1) translate(0.5,0.5)"><text width="115.66666618982953" height="15.624999046325684" transform="scale(1,1) translate(0,168.0729175637631)" xml:space="preserve"><tspan xml:space="preserve" text-rendering="optimizeSpeed" font-size="13.88888888888889" font-weight="normal" font-style="normal" fill="#000000" x="0" text-anchor="start" y="12.5" textLength="74.85774230957031" style="font-family: Arial, Helvetica Neue, Helvetica, sans-serif;">    GALILEO</tspan></text></g></g><g width="154.167" height="154.167" transform="scale(1,1) translate(156.25,131.25)"><g stroke="#717171" opacity="1" stroke-width="1" stroke-dasharray="none" width="154.167" height="154.167" transform="scale(1,1) translate(0,0)" fill="#FFFFFF" fill-opacity="1" stroke-opacity="1"><rect width="154.167" height="154.167"/></g><g width="153.16666690508526" height="153.16666690508526" transform="scale(1,1) translate(0.5,0.5)"><text width="153.16666690508526" height="12.499999046325684" transform="scale(1,1) translate(0,70.33333392937979)" xml:space="preserve"><tspan xml:space="preserve" text-rendering="optimizeSpeed" font-size="11.11111111111111" font-weight="normal" font-style="normal" fill="#000000" x="0" text-anchor="start" y="10.417" textLength="100.60423278808594" style="font-family: Arial, Helvetica Neue, Helvetica, sans-serif;">              ADPS 9960</tspan></text></g></g><g width="141.667" height="141.667" transform="scale(1,1) translate(720.833,120.833)"><g stroke="#717171" opacity="1" stroke-width="1" stroke-dasharray="none" width="141.667" height="141.667" transform="scale(1,1) translate(0,0)" fill="#FFFFFF" fill-opacity="1" stroke-opacity="1"><rect width="141.667" height="141.667"/></g><g width="140.66666762034117" height="140.66666762034117" transform="scale(1,1) translate(0.5,0.5)"><text width="140.66666762034117" height="12.499999046325684" transform="scale(1,1) translate(0,64.08333428700774)" xml:space="preserve"><tspan xml:space="preserve" text-rendering="optimizeSpeed" font-size="11.11111111111111" font-weight="normal" font-style="normal" fill="#000000" x="0" text-anchor="start" y="10.417" textLength="84.95651245117188" style="font-family: Arial, Helvetica Neue, Helvetica, sans-serif;">              TMP102</tspan></text></g></g><g width="103.125" height="103.125" transform="scale(1,1) translate(189.823,305.469)"><g stroke="#717171" opacity="1" stroke-width="1" stroke-dasharray="none" width="103.125" height="103.125" transform="scale(1,1) translate(0,0)" fill="#FFFFFF" fill-opacity="1" stroke-opacity="1"><rect width="103.125" height="103.125"/></g><g width="102.12500025207788" height="102.12500025207787" transform="scale(1,1) translate(0.5,0.5)"><text width="102.12500025207788" height="15.624999046325684" transform="scale(1,1) translate(0,43.25000060287609)" xml:space="preserve"><tspan xml:space="preserve" text-rendering="optimizeSpeed" font-size="13.88888888888889" font-weight="normal" font-style="normal" fill="#000000" x="0" text-anchor="start" y="12.5" textLength="77.9290771484375" style="font-family: Arial, Helvetica Neue, Helvetica, sans-serif;">     CAMERA</tspan></text></g></g><g width="41.667" height="12.5" transform="scale(1,1) translate(679.167,210.417)"><g stroke="#000000" opacity="1" stroke-width="0" stroke-dasharray="none" width="41.667" height="12.5" transform="scale(1,1) translate(0,0)" fill="none" stroke-opacity="1"><rect width="41.667" height="12.5"/></g><g width="41.666666666666664" height="12.499999046325684" transform="scale(1,1) translate(0,0)"><text width="41.666666666666664" height="12.499999046325684" transform="scale(1,1) translate(0,0)" xml:space="preserve"><tspan xml:space="preserve" text-rendering="optimizeSpeed" font-size="11.11111111111111" font-weight="normal" font-style="normal" fill="#000000" x="0" text-anchor="start" y="10.417" textLength="33.9413948059082" style="font-family: Arial, Helvetica Neue, Helvetica, sans-serif;">    SCL</tspan></text></g></g><g width="41.667" height="12.5" transform="scale(1,1) translate(500.008,368.75)"><g stroke="#000000" opacity="1" stroke-width="0" stroke-dasharray="none" width="41.667" height="12.5" transform="scale(1,1) translate(0,0)" fill="none" stroke-opacity="1"><rect width="41.667" height="12.5"/></g><g width="41.666666666666664" height="12.499999046325684" transform="scale(1,1) translate(0,0)"><text width="41.666666666666664" height="12.499999046325684" transform="scale(1,1) translate(0,0)" xml:space="preserve"/></g></g><g width="42.584" height="12.5" transform="scale(1,1) translate(670.375,143.75)"><g stroke="#000000" opacity="1" stroke-width="0" stroke-dasharray="none" width="42.584" height="12.5" transform="scale(1,1) translate(0,0)" fill="none" stroke-opacity="1"><rect width="42.584" height="12.5"/></g><g width="42.583988189697266" height="12.499999046325684" transform="scale(1,1) translate(0,0)"><text width="42.583988189697266" height="12.499999046325684" transform="scale(1,1) translate(0,0)" xml:space="preserve"><tspan xml:space="preserve" text-rendering="optimizeSpeed" font-size="11.11111111111111" font-weight="normal" font-style="normal" fill="#000000" x="0" text-anchor="start" y="10.417" textLength="42.583988189697266" style="font-family: Arial, Helvetica Neue, Helvetica, sans-serif;">       Gnd</tspan></text></g></g><g width="45.833" height="12.5" transform="scale(1,1) translate(293.75,118.75)"><g stroke="#000000" opacity="1" stroke-width="0" stroke-dasharray="none" width="45.833" height="12.5" transform="scale(1,1) translate(0,0)" fill="none" stroke-opacity="1"><rect width="45.833" height="12.5"/></g><g width="45.83333333333337" height="12.499999046325684" transform="scale(1,1) translate(0,0)"><text width="45.83333333333337" height="12.499999046325684" transform="scale(1,1) translate(0,0)" xml:space="preserve"><tspan xml:space="preserve" text-rendering="optimizeSpeed" font-size="11.11111111111111" font-weight="normal" font-style="normal" fill="#000000" x="0" text-anchor="start" y="10.417" textLength="40.106136322021484" style="font-family: Arial, Helvetica Neue, Helvetica, sans-serif;">       Vcc</tspan></text></g></g><g width="41.667" height="12.5" transform="scale(1,1) translate(512.5,343.75)"><g stroke="#000000" opacity="1" stroke-width="0" stroke-dasharray="none" width="41.667" height="12.5" transform="scale(1,1) translate(0,0)" fill="none" stroke-opacity="1"><rect width="41.667" height="12.5"/></g><g width="41.666666666666664" height="12.499999046325684" transform="scale(1,1) translate(0,0)"><text width="41.666666666666664" height="12.499999046325684" transform="scale(1,1) translate(0,0)" xml:space="preserve"><tspan xml:space="preserve" text-rendering="optimizeSpeed" font-size="11.11111111111111" font-weight="normal" font-style="normal" fill="#000000" x="0" text-anchor="start" y="10.417" textLength="30.845481872558594" style="font-family: Arial, Helvetica Neue, Helvetica, sans-serif;">  GND</tspan></text></g></g><g width="44.427" height="12.5" transform="scale(1,1) translate(419.453,352.083)"><g stroke="#000000" opacity="1" stroke-width="0" stroke-dasharray="none" width="44.427" height="12.5" transform="scale(1,1) translate(0,0)" fill="none" stroke-opacity="1"><rect width="44.427" height="12.5"/></g><g width="44.42743682861328" height="12.499999046325684" transform="scale(1,1) translate(0,0)"><text width="44.42743682861328" height="12.499999046325684" transform="scale(1,1) translate(0,0)" xml:space="preserve"><tspan xml:space="preserve" text-rendering="optimizeSpeed" font-size="11.11111111111111" font-weight="normal" font-style="normal" fill="#000000" x="0" text-anchor="start" y="10.417" textLength="44.42743682861328" style="font-family: Arial, Helvetica Neue, Helvetica, sans-serif;">       USB</tspan></text></g></g><g width="41.667" height="12.5" transform="scale(1,1) translate(504.167,302.083)"><g stroke="#000000" opacity="1" stroke-width="0" stroke-dasharray="none" width="41.667" height="12.5" transform="scale(1,1) translate(0,0)" fill="none" stroke-opacity="1"><rect width="41.667" height="12.5"/></g><g width="41.666666666666664" height="12.499999046325684" transform="scale(1,1) translate(0,0)"><text width="41.666666666666664" height="12.499999046325684" transform="scale(1,1) translate(0,0)" xml:space="preserve"><tspan xml:space="preserve" text-rendering="optimizeSpeed" font-size="11.11111111111111" font-weight="normal" font-style="normal" fill="#000000" x="0" text-anchor="start" y="10.417" textLength="38.25726318359375" style="font-family: Arial, Helvetica Neue, Helvetica, sans-serif;">     SDA</tspan></text></g></g><g width="41.667" height="12.5" transform="scale(1,1) translate(504.167,268.75)"><g stroke="#000000" opacity="1" stroke-width="0" stroke-dasharray="none" width="41.667" height="12.5" transform="scale(1,1) translate(0,0)" fill="none" stroke-opacity="1"><rect width="41.667" height="12.5"/></g><g width="41.666666666666664" height="12.499999046325684" transform="scale(1,1) translate(0,0)"><text width="41.666666666666664" height="12.499999046325684" transform="scale(1,1) translate(0,0)" xml:space="preserve"><tspan xml:space="preserve" text-rendering="optimizeSpeed" font-size="11.11111111111111" font-weight="normal" font-style="normal" fill="#000000" x="0" text-anchor="start" y="10.417" textLength="37.02648162841797" style="font-family: Arial, Helvetica Neue, Helvetica, sans-serif;">     SCL</tspan></text></g></g><g width="0" height="193.75" transform="scale(1,1) translate(633.333,156.25)"><g transform="scale(1,1) translate(0,0)" fill="#000000" stroke="#000000" stroke-opacity="1"><path d="M 0 193.75 L 0 3" fill="none" stroke-width="1" stroke-dasharray="none"/><g><g stroke-dasharray="none"><path d="M-0.5,3A3,3 270 1 1 0.5,3z" stroke="none" fill-opacity="1"/></g></g></g></g><g width="70.833" height="1" transform="scale(1,1) translate(650,191.667)"><g transform="scale(1,1) translate(0,0)" fill="#000000" stroke="#000000" stroke-opacity="1"><path d="M70.833,0 L4.167,0 L0,0" fill="none" stroke-width="1" stroke-dasharray="none"/><g><g stroke-dasharray="none"><path d="M69.833,-1L71.833,-1L71.833,1L69.833,1z" stroke-width="0" fill="none"/></g></g></g></g><g width="44.427" height="12.5" transform="scale(1,1) translate(669.453,177.083)"><g stroke="#000000" opacity="1" stroke-width="0" stroke-dasharray="none" width="44.427" height="12.5" transform="scale(1,1) translate(0,0)" fill="none" stroke-opacity="1"><rect width="44.427" height="12.5"/></g><g width="44.42744064331055" height="12.499999046325684" transform="scale(1,1) translate(0,0)"><text width="44.42744064331055" height="12.499999046325684" transform="scale(1,1) translate(0,0)" xml:space="preserve"><tspan xml:space="preserve" text-rendering="optimizeSpeed" font-size="11.11111111111111" font-weight="normal" font-style="normal" fill="#000000" x="0" text-anchor="start" y="10.417" textLength="44.42744064331055" style="font-family: Arial, Helvetica Neue, Helvetica, sans-serif;">       SDA</tspan></text></g></g><g width="41.667" height="12.5" transform="scale(1,1) translate(320.833,268.75)"><g stroke="#000000" opacity="1" stroke-width="0" stroke-dasharray="none" width="41.667" height="12.5" transform="scale(1,1) translate(0,0)" fill="none" stroke-opacity="1"><rect width="41.667" height="12.5"/></g><g width="41.666666666666664" height="12.499999046325684" transform="scale(1,1) translate(0,0)"><text width="41.666666666666664" height="12.499999046325684" transform="scale(1,1) translate(0,0)" xml:space="preserve"><tspan xml:space="preserve" text-rendering="optimizeSpeed" font-size="11.11111111111111" font-weight="normal" font-style="normal" fill="#000000" x="0" text-anchor="start" y="10.417" textLength="16.656238555908203" style="font-family: Arial, Helvetica Neue, Helvetica, sans-serif;">INT</tspan></text></g></g><g width="44.427" height="12.5" transform="scale(1,1) translate(302.786,193.75)"><g stroke="#000000" opacity="1" stroke-width="0" stroke-dasharray="none" width="44.427" height="12.5" transform="scale(1,1) translate(0,0)" fill="none" stroke-opacity="1"><rect width="44.427" height="12.5"/></g><g width="44.42744064331055" height="12.499999046325684" transform="scale(1,1) translate(0,0)"><text width="44.42744064331055" height="12.499999046325684" transform="scale(1,1) translate(0,0)" xml:space="preserve"><tspan xml:space="preserve" text-rendering="optimizeSpeed" font-size="11.11111111111111" font-weight="normal" font-style="normal" fill="#000000" x="0" text-anchor="start" y="10.417" textLength="44.42744064331055" style="font-family: Arial, Helvetica Neue, Helvetica, sans-serif;">       SDA</tspan></text></g></g><g width="41.667" height="12.5" transform="scale(1,1) translate(336.12,102.083)"><g stroke="#000000" opacity="1" stroke-width="0" stroke-dasharray="none" width="41.667" height="12.5" transform="scale(1,1) translate(0,0)" fill="none" stroke-opacity="1"><rect width="41.667" height="12.5"/></g><g width="41.666666666666664" height="12.499999046325684" transform="scale(1,1) translate(0,0)"><text width="41.666666666666664" height="12.499999046325684" transform="scale(1,1) translate(0,0)" xml:space="preserve"/></g></g><g width="45.833" height="12.5" transform="scale(1,1) translate(668.75,110.417)"><g stroke="#000000" opacity="1" stroke-width="0" stroke-dasharray="none" width="45.833" height="12.5" transform="scale(1,1) translate(0,0)" fill="none" stroke-opacity="1"><rect width="45.833" height="12.5"/></g><g width="45.83333333333333" height="12.499999046325684" transform="scale(1,1) translate(0,0)"><text width="45.83333333333333" height="12.499999046325684" transform="scale(1,1) translate(0,0)" xml:space="preserve"><tspan xml:space="preserve" text-rendering="optimizeSpeed" font-size="11.11111111111111" font-weight="normal" font-style="normal" fill="#000000" x="0" text-anchor="start" y="10.417" textLength="40.106136322021484" style="font-family: Arial, Helvetica Neue, Helvetica, sans-serif;">       Vcc</tspan></text></g></g><g width="51.839" height="14.5" transform="scale(1,1) translate(299.08,151.083)"><g stroke="#000000" opacity="1" stroke-width="0" stroke-dasharray="none" width="51.839" height="14.5" transform="scale(1,1) translate(0,0)" fill="none" stroke-opacity="1"><rect width="51.839" height="14.5"/></g><g width="51.83925247192383" height="14.5" transform="scale(1,1) translate(0,0)"><text width="51.83925247192383" height="12.499999046325684" transform="scale(1,1) translate(0,0)" xml:space="preserve"><tspan xml:space="preserve" text-rendering="optimizeSpeed" font-size="11.11111111111111" font-weight="normal" font-style="normal" fill="#000000" x="0" text-anchor="start" y="10.417" textLength="45.6690788269043" style="font-family: Arial, Helvetica Neue, Helvetica, sans-serif;">        Gnd</tspan></text></g></g><g width="41.667" height="12.5" transform="scale(1,1) translate(412.5,118.75)"><g stroke="#000000" opacity="1" stroke-width="0" stroke-dasharray="none" width="41.667" height="12.5" transform="scale(1,1) translate(0,0)" fill="none" stroke-opacity="1"><rect width="41.667" height="12.5"/></g><g width="41.66666666666663" height="12.5" transform="scale(1,1) translate(0,0)"><text width="41.66666666666663" height="12.499999046325684" transform="scale(1,1) translate(0,0)" xml:space="preserve"><tspan xml:space="preserve" text-rendering="optimizeSpeed" font-size="11.11111111111111" font-weight="normal" font-style="normal" fill="#000000" x="0" text-anchor="start" y="10.417" textLength="30.856304168701172" style="font-family: Arial, Helvetica Neue, Helvetica, sans-serif;">        2</tspan></text></g></g><g width="46.282" height="14.5" transform="scale(1,1) translate(300.008,234.417)"><g stroke="#000000" opacity="1" stroke-width="0" stroke-dasharray="none" width="46.282" height="14.5" transform="scale(1,1) translate(0,0)" fill="none" stroke-opacity="1"><rect width="46.282" height="14.5"/></g><g width="46.2817497253418" height="14.5" transform="scale(1,1) translate(0,0)"><text width="46.2817497253418" height="12.499999046325684" transform="scale(1,1) translate(0,0)" xml:space="preserve"><tspan xml:space="preserve" text-rendering="optimizeSpeed" font-size="11.11111111111111" font-weight="normal" font-style="normal" fill="#000000" x="0" text-anchor="start" y="10.417" textLength="46.2817497253418" style="font-family: Arial, Helvetica Neue, Helvetica, sans-serif;">        SCL</tspan></text></g></g><g width="40.625" height="66.667" transform="scale(1,1) translate(310.417,64.583)"><g transform="scale(1,1) translate(0,0)" fill="#000000" stroke="#000000" stroke-opacity="1"><path d="M40.625,0 L40.625,66.667 L0,66.667" fill="none" stroke-width="1" stroke-dasharray="none"/><g><g stroke-dasharray="none"><path d="M39.625,-1L41.625,-1L41.625,1L39.625,1z" stroke-width="0" fill="none"/></g></g></g></g><g width="140.386" height="0" transform="scale(1,1) translate(292.948,357.031)"><g transform="scale(1,1) translate(0,0)" fill="#000000" stroke="#000000" stroke-opacity="1"><path d="M0,0 L140.386,0" fill="none" stroke-width="1" stroke-dasharray="none"/><g><g stroke-dasharray="none"><path d="M-1,-1L1,-1L1,1L-1,1z" stroke-width="0" fill="none"/></g></g></g></g><g width="410.417" height="137.875" transform="scale(1,1) translate(310.417,31.917)"><g transform="scale(1,1) translate(0,0)" fill="#000000" stroke="#000000" stroke-opacity="1"><path d="M410.417,124.333 L322.917,124.333 L322.917,0 L56.25,0 L56.25,66.667 L57.343,137.875 L0,137.875" fill="none" stroke-width="1" stroke-dasharray="none"/><g><g stroke-dasharray="none"><path d="M409.417,123.333L411.417,123.333L411.417,125.333L409.417,125.333z" stroke-width="0" fill="none"/></g></g></g></g><g width="357.667" height="150" transform="scale(1,1) translate(310.417,58.333)"><g transform="scale(1,1) translate(0,0)" fill="#000000" stroke="#000000" stroke-opacity="1"><path d="M0,150 L72.917,150 L72.917,0 L289.583,0 L289.583,133.333 L357.667,133.333" fill="none" stroke-width="1" stroke-dasharray="none"/><g><g stroke-dasharray="none"><path d="M-1,149L1,149L1,151L-1,151z" stroke-width="0" fill="none"/></g></g></g></g><g width="410.417" height="163.542" transform="scale(1,1) translate(310.417,83.333)"><g transform="scale(1,1) translate(0,0)" fill="#000000" stroke="#000000" stroke-opacity="1"><path d="M0,163.542 L89.583,163.542 L89.583,0 L256.25,0 L256.25,143.75 L410.417,143.75" fill="none" stroke-width="1" stroke-dasharray="none"/><g><g stroke-dasharray="none"><path d="M-1,162.542L1,162.542L1,164.542L-1,164.542z" stroke-width="0" fill="none"/></g></g></g></g><g width="82.292" height="0" transform="scale(1,1) translate(551.042,350)"><g transform="scale(1,1) translate(0,0)" fill="#000000" stroke="#000000" stroke-opacity="1"><path d="M0,0 L82.292,0" fill="none" stroke-width="1" stroke-dasharray="none"/><g><g stroke-dasharray="none"><path d="M-1,-1L1,-1L1,1L-1,1z" stroke-width="0" fill="none"/></g></g></g></g><g width="51.417" height="0" transform="scale(1,1) translate(548.583,308.333)"><g transform="scale(1,1) translate(0,0)" fill="#000000" stroke="#000000" stroke-opacity="1"><path d="M0,0 L51.417,0" fill="none" stroke-width="1" stroke-dasharray="none"/><g><g stroke-dasharray="none"><path d="M-1,-1L1,-1L1,1L-1,1z" stroke-width="0" fill="none"/></g></g></g></g><g width="365.625" height="108.333" transform="scale(1,1) translate(351.042,16.667)"><g transform="scale(1,1) translate(0,0)" fill="#000000" stroke="#000000" stroke-opacity="1"><path d="M0,58.333 L0,0 L332.292,0 L332.292,108.333 L365.625,108.333" fill="none" stroke-width="1" stroke-dasharray="none"/><g><g stroke-dasharray="none"><path d="M-1,57.333L1,57.333L1,59.333L-1,59.333z" stroke-width="0" fill="none"/></g></g></g></g><g width="123.625" height="160.417" transform="scale(1,1) translate(310.417,125)"><g transform="scale(1,1) translate(0,0)" fill="#000000" stroke="#000000" stroke-opacity="1"><path d="M0,160.417 L106.25,160.417 L106.25,0 L123.625,0" fill="none" stroke-width="1" stroke-dasharray="none"/><g><g stroke-dasharray="none"><path d="M-1,159.417L1,159.417L1,161.417L-1,161.417z" stroke-width="0" fill="none"/></g></g></g></g><g width="45.833" height="12.5" transform="scale(1,1) translate(502.083,385.417)"><g stroke="#000000" opacity="1" stroke-width="0" stroke-dasharray="none" width="45.833" height="12.5" transform="scale(1,1) translate(0,0)" fill="none" stroke-opacity="1"><rect width="45.833" height="12.5"/></g><g width="45.83333333333333" height="12.499999046325684" transform="scale(1,1) translate(0,0)"><text width="45.83333333333333" height="12.499999046325684" transform="scale(1,1) translate(0,0)" xml:space="preserve"><tspan xml:space="preserve" text-rendering="optimizeSpeed" font-size="11.11111111111111" font-weight="normal" font-style="normal" fill="#000000" x="0" text-anchor="start" y="10.417" textLength="40.106136322021484" style="font-family: Arial, Helvetica Neue, Helvetica, sans-serif;">       Vcc</tspan></text></g></g><g width="134.75" height="272.917" transform="scale(1,1) translate(549.292,121.875)"><g transform="scale(1,1) translate(0,0)" fill="#000000" stroke="#000000" stroke-opacity="1"><path d="M0,272.917 L134.75,272.917 L131.976,0" fill="none" stroke-width="1" stroke-dasharray="none"/><g><g stroke-dasharray="none"><path d="M-1,271.917L1,271.917L1,273.917L-1,273.917z" stroke-width="0" fill="none"/></g></g></g></g><g width="0" height="115.125" transform="scale(1,1) translate(600,191.667)"><g transform="scale(1,1) translate(0,0)" fill="#000000" stroke="#000000" stroke-opacity="1"><path d="M 0 3 L 0 115.125" fill="none" stroke-width="1" stroke-dasharray="none"/><g><g stroke-dasharray="none"><path d="M-0.5,3A3,3 270 1 1 0.5,3z" stroke="none" fill-opacity="1"/></g></g></g></g><g width="12.667" height="50" transform="scale(1,1) translate(554,225)"><g transform="scale(1,1) translate(0,0)" fill="#000000" stroke="#000000" stroke-opacity="1"><path d="M 12.667 3 L 12.667 50 L 0 50" fill="none" stroke-width="1" stroke-dasharray="none"/><g><g stroke-dasharray="none"><path d="M12.167,3A3,3 270 1 1 13.167,3z" stroke="none" fill-opacity="1"/></g></g></g></g><g width="741.667" height="75" transform="scale(1,1) translate(41.667,670.833)"><g stroke="#717171" opacity="1" stroke-width="1" stroke-dasharray="none" width="741.667" height="75" transform="scale(1,1) translate(0,0)" fill="#FFFFFF" fill-opacity="1" stroke-opacity="1"><rect width="741.667" height="75"/></g><g width="740.6666708806414" height="74" transform="scale(1,1) translate(0.5,0.5)"><text width="740.6666708806414" height="24.999998092651367" transform="scale(1,1) translate(0,24.500000953674316)" xml:space="preserve"><tspan xml:space="preserve" text-rendering="optimizeSpeed" font-size="11.11111111111111" font-weight="normal" font-style="normal" fill="#000000" x="230.358" text-anchor="start" y="10.417" textLength="279.9512939453125" style="font-family: Arial, Helvetica Neue, Helvetica, sans-serif;">SCHEMATIC PREPARED BY: HEMA, TAHA  and Paridhi</tspan><tspan xml:space="preserve" text-rendering="optimizeSpeed" font-size="11.11111111111111" font-weight="normal" font-style="normal" fill="#000000" x="328.145" text-anchor="start" y="22.917" textLength="84.37635040283203" style="font-family: Arial, Helvetica Neue, Helvetica, sans-serif;">Date: 11/27/2016</tspan></text></g></g></g></svg>